# xmcd
#
# Track frame offsets:
#	150
#	15335
#	26004
#	37105
#	48941
#	58434
#	73424
#	84471
#	94449
#	105264
#	117853
#	129929
#	142637
#	155659
#	169471
#	181987
#	195452
#	208977
#	225066
#	237101
#	245998
#	260759
#	269579
#	276215
#	289915
#
# Disc length: 4029 seconds
#
# Revision: 0
# Processed by: cddbd v1.5.2PL0 Copyright (c) Steve Scherf et al.
# Submitted via: dBpowerAMP V4.0
#
DISCID=740fbb19
DTITLE=Nagibe e Banda em Natal - Esse é Swing 
DYEAR=2010
DGENRE=Axé
TTITLE0=Vou não posso não
TTITLE1=Casa das Primas
TTITLE2=Nosso amor já era
TTITLE3=Tô Solteiro Tô Feliz
TTITLE4=Assim é o amor
TTITLE5=Nova Dança
TTITLE6=Se Liga
TTITLE7=Fugidinha
TTITLE8=Do meu Jeito
TTITLE9=Baby baby
TTITLE10=Esse é o Swing
TTITLE11=Fã
TTITLE12=Eu ja sabia
TTITLE13=Sem saída
TTITLE14=Coração Solteiro
TTITLE15=Sempre te amei
TTITLE16=Pra nunca te esquecer
TTITLE17=Só quer chiclete
TTITLE18=Volta no meu mundo
TTITLE19=Vagalume
TTITLE20=Pegue o passo
TTITLE21=Temporal
TTITLE22=Procurando meu bem
TTITLE23=Chorei demais
TTITLE24=Tô com Saudade de Você
EXTD=
EXTT0=
EXTT1=
EXTT2=
EXTT3=
EXTT4=
EXTT5=
EXTT6=
EXTT7=
EXTT8=
EXTT9=
EXTT10=
EXTT11=
EXTT12=
EXTT13=
EXTT14=
EXTT15=
EXTT16=
EXTT17=
EXTT18=
EXTT19=
EXTT20=
EXTT21=
EXTT22=
EXTT23=
EXTT24=
PLAYORDER=
